<svg xmlns="http://www.w3.org/2000/svg" xmlns:xlink="http://www.w3.org/1999/xlink" version="1.1" x="0px" y="0px" viewBox="0 0 100 125" enable-background="new 0 0 100 100" xml:space="preserve"><path d="M36.324,81.819c-0.672-4.475-1.989-8.765-3.598-12.98c-1.266-3.314-1.36-6.754-0.915-10.237  c0.364-2.85,1.111-5.602,2.026-8.314c0.134-0.398,0.145-0.708-0.1-1.076c-0.712-1.069-0.977-2.26-0.806-3.535  c0.048-0.357-0.038-0.624-0.258-0.917c-0.39-0.52-0.702-1.098-1.068-1.638c-0.095-0.139-0.273-0.323-0.407-0.318  c-2.357,0.089-4.472-0.739-6.537-1.726c-2.936-1.403-5.794-2.95-8.315-5.03c-0.741-0.611-1.402-1.348-1.99-2.111  c-0.625-0.811-0.529-1.174,0.243-1.837c0.898-0.772,1.992-1.125,3.115-1.383c3.052-0.7,6.105-0.519,9.152,0.051  c2.158,0.404,4.244,1.051,6.267,1.903c0.095,0.04,0.194,0.069,0.325,0.116c0.17-0.573,0.282-1.147,0.508-1.673  c0.529-1.231,1.119-2.435,1.666-3.659c0.084-0.188,0.151-0.457,0.081-0.63c-1.091-2.671-2.307-5.284-4.21-7.487  c-0.612-0.708-1.392-1.301-2.178-1.819c-0.869-0.572-1.858-0.54-2.683,0.104c-0.773,0.603-1.48,1.306-2.144,2.031  c-1.539,1.678-3.001,3.427-4.565,5.081c-0.585,0.619-1.326,1.116-2.063,1.56c-2.951,1.776-4.828-0.209-5.29-2.459  c-0.366-1.781,0.033-3.492,0.48-5.321c0.321,1.035,0.571,1.967,0.905,2.867c0.219,0.589,0.51,1.166,0.861,1.687  c0.369,0.549,0.829,0.543,1.19-0.008c0.355-0.542,0.687-1.123,0.895-1.732c0.74-2.17,1.386-4.371,2.136-6.537  c0.981-2.834,2.481-5.35,4.831-7.278c3.881-3.184,9.123-3.329,13.432-0.376c2.471,1.693,4.254,4.006,5.8,6.527  c1.319,2.15,2.288,4.454,3.043,6.852c0.105,0.334,0.258,0.48,0.592,0.563c1.178,0.291,2.239,0.841,3.048,1.471  c1.228-0.528,2.362-0.996,3.474-1.511c0.195-0.091,0.364-0.361,0.433-0.583c1.089-3.47,2.699-6.665,4.954-9.53  c1.414-1.796,3.04-3.341,5.053-4.456c5.059-2.799,10.417-1.357,13.78,2.361c1.912,2.115,3.078,4.624,3.915,7.316  c0.544,1.751,1.1,3.5,1.703,5.231c0.206,0.591,0.518,1.164,0.878,1.678c0.404,0.578,0.884,0.588,1.209-0.029  c0.506-0.959,0.886-1.987,1.284-3c0.166-0.423,0.242-0.882,0.476-1.345c0.146,0.65,0.314,1.296,0.433,1.951  c0.238,1.316,0.32,2.636-0.155,3.923c-0.463,1.255-1.267,2.172-2.652,2.391c-0.934,0.147-1.777-0.195-2.567-0.656  c-1.672-0.978-2.996-2.351-4.246-3.8c-1.107-1.284-2.133-2.642-3.292-3.877c-1.829-1.949-3.388-1.953-5.336-0.099  c-1.479,1.407-2.508,3.142-3.429,4.938c-0.531,1.035-0.97,2.116-1.474,3.166c-0.163,0.34-0.115,0.615,0.035,0.944  c0.615,1.346,1.212,2.7,1.787,4.063c0.156,0.369,0.213,0.779,0.309,1.145c1.347-0.452,2.666-0.941,4.012-1.338  c2.882-0.851,5.828-1.282,8.838-1.128c1.752,0.089,3.486,0.329,5.072,1.153c0.433,0.225,0.845,0.516,1.213,0.838  c0.501,0.439,0.588,0.779,0.192,1.297c-0.639,0.836-1.284,1.712-2.094,2.363c-3.466,2.789-7.322,4.92-11.538,6.341  c-1.016,0.343-2.152,0.324-3.227,0.503c-0.202,0.034-0.441,0.172-0.558,0.336c-0.408,0.574-0.78,1.174-1.142,1.778  c-0.099,0.166-0.181,0.386-0.163,0.571c0.136,1.407-0.176,2.695-0.915,3.899c-0.114,0.186-0.138,0.507-0.064,0.717  c1.103,3.143,1.887,6.355,2.217,9.675c0.347,3.491-0.103,6.877-1.393,10.136c-1.533,3.873-2.589,7.87-3.244,11.98  c-0.045,0.003-0.09,0.006-0.135,0.009c-0.533-3.638-1.066-7.276-1.616-11.024c-0.121,0.705-0.219,1.314-0.331,1.919  c-0.295,1.586-0.813,3.097-1.45,4.58c-0.211,0.491-0.168,1.097-0.217,1.652c-0.304,3.442-1.787,6.358-4.02,8.923  c-0.776,0.891-1.642,1.705-2.479,2.54c-1.33,1.327-2.527,2.753-3.406,4.513c-0.253-0.433-0.465-0.809-0.69-1.177  c-0.855-1.398-1.949-2.598-3.129-3.722c-1.787-1.704-3.404-3.539-4.518-5.77c-0.977-1.958-1.536-4.015-1.498-6.218  c0.004-0.204-0.036-0.429-0.122-0.612c-0.986-2.075-1.593-4.257-1.899-6.538c-0.521,3.622-1.043,7.244-1.564,10.866  C36.435,81.826,36.379,81.822,36.324,81.819z M45.463,82.796c0.03,0.016,0.07,0.024,0.09,0.048c1.657,2.003,3.214,4.072,4.239,6.489  c0.023,0.053,0.073,0.095,0.15,0.19c1.01-2.468,2.545-4.529,4.164-6.538c0.111-0.138,0.207-0.359,0.183-0.522  c-0.088-0.576-0.231-1.144-0.373-1.804c-1.395,1.833-2.702,3.551-4.001,5.26c-1.311-1.699-2.638-3.419-3.993-5.175  c-0.089,0.255-0.197,0.477-0.241,0.711c-0.085,0.449-0.134,0.905-0.2,1.357c-1.604-1.707-2.888-3.589-3.256-6.044  c-0.846,3.711,1.395,7.967,3.966,10.25C45.741,85.61,45.281,84.255,45.463,82.796z M60.349,51.905  c-4.039-1.425-5.144-8.128-1.896-11.132c-0.558,2.177-0.865,4.324-0.087,6.568c0.506-0.865,0.898-1.685,1.429-2.401  c0.53-0.714,1.122-1.43,1.828-1.955c1.257-0.935,2.733-0.744,3.86,0.33c0.09,0.085,0.184,0.166,0.277,0.248  c0.058-0.035,0.116-0.069,0.174-0.104c-0.409-0.867-0.784-1.753-1.239-2.596c-0.371-0.686-0.531-0.72-1.291-0.555  c-0.573,0.125-1.14,0.274-1.764,0.425c0.412-0.883,1.019-1.447,1.888-1.747c0.157-0.054,0.362-0.25,0.374-0.396  c0.155-1.809,0.316-3.62,0.388-5.434c0.025-0.643-0.188-1.295-0.292-1.943c-0.047-0.003-0.095-0.006-0.142-0.009  c-0.729,3.202-2.133,6.025-4.573,8.271c0.019-0.178,0.089-0.333,0.145-0.492c0.415-1.179,0.913-2.337,1.221-3.544  c0.461-1.811-0.165-3.302-1.626-4.163c-1.058-0.623-2.226-0.852-3.421-0.615c-0.921,0.183-1.807,0.539-2.718,0.821  c-0.058-0.331-0.129-0.742-0.212-1.214c-0.812,1.297-1.585,2.532-2.395,3.826c-0.364-0.633-0.652-1.133-0.94-1.634  c-0.016,0.007-0.032,0.013-0.048,0.02c0.154,0.665,0.308,1.33,0.463,1.996c-0.045,0.014-0.09,0.027-0.135,0.041  c-0.796-1.366-1.593-2.733-2.454-4.211c-0.098,0.52-0.167,0.886-0.241,1.281c-0.345-0.172-0.607-0.319-0.881-0.436  c-1.561-0.665-3.141-0.784-4.735-0.124c-1.439,0.595-2.259,1.846-2.226,3.405c0.026,1.24,0.446,2.385,0.902,3.518  c0.199,0.496,0.411,0.986,0.617,1.479c-2.493-2.248-3.886-5.094-4.673-8.3c-0.152,0.57-0.292,1.135-0.346,1.708  c-0.179,1.915,0.086,3.807,0.342,5.699c0.041,0.304,0.201,0.443,0.486,0.532c0.811,0.254,1.327,0.834,1.812,1.667  c-0.732-0.179-1.305-0.349-1.89-0.449c-0.255-0.044-0.654-0.047-0.785,0.105c-0.765,0.89-1.205,1.949-1.485,3.133  c0.109-0.036,0.151-0.037,0.172-0.059c1.646-1.704,3.757-1.156,4.944,0.323c0.767,0.956,1.354,2.056,2.017,3.095  c0.094,0.147,0.161,0.311,0.291,0.566c0.872-2.341,0.567-4.532-0.107-6.788c3.378,3.143,2.303,9.835-1.813,11.236  c0.454-0.771,0.884-1.469,1.276-2.187c0.098-0.18,0.174-0.472,0.096-0.631c-0.301-0.608-0.669-1.183-1.029-1.799  c-1.093,0.811-2.182,0.981-3.282,0.292c-1.237-0.775-1.264-2.004-1.067-3.372c-0.59,0.79-0.812,1.586-0.731,2.459  c0.164,1.756,1.345,2.745,2.886,3.584c-0.336,0.111-0.538,0.177-0.782,0.258c-0.779,4.734,0.464,9.105,2.366,13.358  c0.831-2.898,2.578-5.58,4.014-6.052c-0.13,0.286-0.269,0.551-0.373,0.829c-0.601,1.599-1.263,3.18-1.768,4.809  c-0.417,1.344-0.583,2.8,0.012,4.111c1.031,2.269,2.62,4.1,4.869,5.275c0.712,0.372,1.479,0.576,2.298,0.508  c0.903-0.074,1.211-0.433,1.176-1.331c-0.038-0.968-0.33-1.848-0.946-2.589c-0.631-0.76-1.304-1.486-1.975-2.212  c-0.742-0.804-1.551-1.552-2.239-2.398c-0.609-0.75-0.229-1.541,0.744-1.661c0.323-0.04,0.693-0.029,0.987,0.093  c1.041,0.43,2.078,0.879,3.075,1.399c0.531,0.276,0.949,0.274,1.471-0.002c0.919-0.484,1.865-0.926,2.828-1.313  c0.392-0.158,0.869-0.209,1.292-0.164c0.923,0.1,1.259,0.85,0.726,1.597c-0.336,0.471-0.756,0.885-1.155,1.307  c-0.874,0.924-1.782,1.816-2.634,2.76c-0.837,0.927-1.39,1.995-1.382,3.291c0.005,0.803,0.319,1.223,1.126,1.199  c0.691-0.02,1.422-0.117,2.056-0.375c2.012-0.819,3.343-2.418,4.531-4.166c0.884-1.301,1.195-2.723,0.887-4.235  c-0.26-1.273-0.622-2.531-1.033-3.765c-0.337-1.01-0.813-1.975-1.28-3.084c2.224,1.586,3.289,3.753,3.952,6.2  c1.932-2.687,3.315-10.794,2.329-13.375c-0.238-0.091-0.444-0.169-0.784-0.299c1.227-0.646,2.192-1.342,2.684-2.517  c0.505-1.205,0.33-2.33-0.471-3.539c0.243,1.488,0.105,2.732-1.183,3.481c-1.075,0.625-2.136,0.407-3.154-0.344  c-0.314,0.511-0.61,1.01-0.923,1.498c-0.228,0.356-0.197,0.668,0.034,1.022C59.516,50.476,59.903,51.161,60.349,51.905z   M33.647,36.319c-0.069-0.478-0.159-0.91-0.187-1.345c-0.023-0.361-0.16-0.551-0.503-0.698c-2.085-0.89-4.238-1.555-6.47-1.942  c-2.712-0.471-5.435-0.66-8.166-0.147c-0.919,0.173-1.809,0.433-2.596,0.968c0.033,0.086,0.042,0.143,0.073,0.181  c0.112,0.137,0.226,0.271,0.348,0.399c1.219,1.275,2.683,2.228,4.144,3.194c1.051,0.695,2.152,1.089,3.426,1.004  c0.508-0.034,1.023,0.051,1.535,0.061c0.622,0.012,1.245,0.003,1.867,0.003c0.011-0.048,0.021-0.096,0.032-0.144  c-1.588-0.526-3.176-1.051-4.764-1.577c0.014-0.082,0.029-0.164,0.043-0.246c1.247,0,2.494,0,3.74,0  c-2.544-1.968-5.416-2.7-8.53-2.622c3.542-1.563,12.241,1.36,14.11,4.707c-1.196-0.252-2.373-0.5-3.549-0.748  c1.254,0.711,2.644,1.161,3.486,2.399c-0.023,0.066-0.046,0.132-0.07,0.197c-2.297-0.256-4.594-0.512-6.905-0.769  c0.025,0.054,0.03,0.099,0.053,0.11c1.719,0.881,3.475,1.661,5.443,1.766c0.878,0.047,1.731-0.091,2.496-0.557  c0.662-0.403,0.813-0.729,0.562-1.451c-0.407-1.17-0.873-2.319-1.32-3.491C32.46,35.797,33.033,36.049,33.647,36.319z M84.2,33.133  c-0.291-0.158-0.506-0.327-0.75-0.398c-0.809-0.236-1.617-0.533-2.447-0.637c-4.964-0.618-9.696,0.289-14.244,2.292  c-0.126,0.056-0.287,0.181-0.31,0.297c-0.108,0.546-0.173,1.101-0.255,1.665c0.606-0.265,1.191-0.521,1.7-0.744  c-0.45,1.202-0.891,2.404-1.351,3.597c-0.204,0.53,0.018,0.877,0.423,1.175c0.878,0.646,1.89,0.773,2.926,0.676  c1.876-0.176,3.573-0.915,5.226-1.77c0.013-0.007,0.005-0.053,0.007-0.074c-2.291,0.258-4.579,0.516-6.868,0.775  c-0.02-0.057-0.04-0.115-0.06-0.172c0.808-1.273,2.237-1.685,3.445-2.446c-1.159,0.253-2.317,0.507-3.625,0.793  c0.312-0.35,0.501-0.633,0.756-0.834c0.733-0.579,1.456-1.182,2.248-1.672c2.765-1.711,5.729-2.821,9.042-2.703  c0.733,0.026,1.461,0.192,2.191,0.294c-0.001,0.07-0.002,0.141-0.004,0.211c-3.13-0.153-5.977,0.633-8.52,2.425  c0.006,0.068,0.011,0.135,0.017,0.203c1.248,0,2.496,0,3.744,0c0.006,0.069,0.013,0.137,0.019,0.206  c-1.595,0.513-3.19,1.026-4.785,1.54c0.012,0.048,0.024,0.096,0.036,0.143c0.083,0.012,0.166,0.036,0.248,0.033  c1.589-0.055,3.178-0.108,4.766-0.177c0.166-0.007,0.344-0.084,0.49-0.172c0.936-0.566,1.887-1.111,2.79-1.727  C82.189,35.156,83.269,34.3,84.2,33.133z M58.774,70.073c-0.056-0.009-0.112-0.018-0.167-0.027c-1.516,2.32-3.478,4.156-5.932,5.456  c-1.834,0.971-3.674,0.989-5.523,0.029c-1.749-0.907-3.22-2.162-4.512-3.631c-0.513-0.584-0.967-1.22-1.487-1.883  c0.009,0.197,0.007,0.336,0.023,0.473c0.026,0.227,0.041,0.46,0.1,0.679c0.818,3.024,2.74,5.179,5.418,6.669  c2.092,1.164,4.266,1.145,6.388,0.037c2.428-1.267,4.129-3.226,5.174-5.738C58.526,71.491,58.607,70.764,58.774,70.073z   M34.767,54.26c-0.755,2.962-1.426,5.934-1.197,9.024c0.23,3.091,1.372,5.924,2.484,8.765C35.265,66.142,34.955,60.208,34.767,54.26  z M65.1,54.22c-0.156,6.016-0.498,11.919-1.307,17.897C66.607,66.67,67.103,59.87,65.1,54.22z M43.594,18.295  c-0.19-0.427-0.309-0.781-0.499-1.091c-0.116-0.188-0.321-0.397-0.523-0.447c-2.772-0.685-5.318-0.164-7.618,1.52  c-0.336,0.246-0.6,0.591-0.897,0.891c0.029,0.039,0.058,0.078,0.088,0.116c0.929-0.603,1.91-0.997,3.098-0.852  c-1.715,1.57-2.066,1.996-2.317,2.84C37.51,19.396,40.327,18.314,43.594,18.295z M65.825,19.272  c-0.124-0.158-0.24-0.323-0.373-0.473c-1.712-1.925-5.883-2.94-8.286-2.011c-0.137,0.053-0.297,0.149-0.36,0.27  c-0.201,0.384-0.362,0.789-0.557,1.228c3.235,0.034,6.083,1.059,8.76,3.008c-0.573-1.245-1.397-2.099-2.429-2.901  C63.851,18.276,64.853,18.654,65.825,19.272z M49.939,25.075c-0.887-1.007-1.851-1.854-3.18-2.31  c0.207,2.414,1.655,4.069,3.062,5.755c1.593-1.142,3.299-4.194,3.193-5.658C52.133,23.084,51.349,23.645,49.939,25.075z   M67.773,16.674c0.026-0.074,0.053-0.109,0.046-0.136c-0.626-2.348-2.359-4.604-5.145-5.116c-1.908-0.351-2.788,0.089-3.49,1.707  C62.816,12.44,65.522,13.999,67.773,16.674z M66.388,18.064c0.035-0.027,0.07-0.054,0.105-0.081  c-0.148-0.331-0.258-0.686-0.45-0.989c-1.399-2.214-3.396-3.274-6.035-3.167c-1.293,0.053-2.102,0.641-2.469,1.896  C60.868,15.051,63.818,15.839,66.388,18.064z M42.379,15.731c-0.262-0.448-0.455-0.845-0.713-1.194  c-0.145-0.197-0.376-0.386-0.605-0.457c-3.025-0.935-6.378,0.67-7.577,3.608c-0.045,0.111-0.064,0.233-0.128,0.476  C35.997,15.839,38.937,15.084,42.379,15.731z M40.79,13.148c-0.353-0.468-0.631-0.825-0.897-1.191  c-0.265-0.365-0.608-0.553-1.066-0.593c-2.026-0.174-3.704,0.525-5.055,2.013c-0.845,0.93-1.421,2.017-1.712,3.268  C34.34,14.006,37.049,12.446,40.79,13.148z M44.488,20.846c-0.153-0.472-0.265-0.898-0.437-1.298  c-0.057-0.133-0.272-0.28-0.414-0.28c-0.581,0-1.168,0.012-1.741,0.097c-1.906,0.282-3.637,0.978-5.087,2.281  c-0.448,0.402-0.802,0.871-0.924,1.613C38.577,21.661,41.406,20.863,44.488,20.846z M45.242,23.607  c-0.122-0.476-0.237-0.881-0.327-1.291c-0.066-0.301-0.204-0.448-0.538-0.418c-0.614,0.055-1.235,0.044-1.845,0.12  c-1.714,0.213-3.344,0.677-4.761,1.724c-0.477,0.353-0.741,0.809-0.779,1.46C39.626,24.03,42.358,23.609,45.242,23.607z   M54.643,23.611c2.877-0.031,5.603,0.419,8.256,1.616c-0.027-0.197-0.033-0.298-0.055-0.395c-0.164-0.724-0.718-1.119-1.295-1.464  c-1.91-1.141-4.014-1.494-6.202-1.452c-0.13,0.003-0.326,0.185-0.371,0.322C54.839,22.655,54.763,23.091,54.643,23.611z   M63.935,23.18c-0.192-0.844-0.64-1.41-1.243-1.866c-1.591-1.204-3.401-1.83-5.375-2.025c-1.427-0.141-1.427-0.148-1.864,1.219  c-0.031,0.096-0.043,0.198-0.065,0.299C59.765,21.3,59.765,21.3,63.935,23.18z M57.728,76.788c-0.08,0.149-0.116,0.19-0.124,0.236  c-0.382,2.07-1.516,3.737-2.84,5.3c-0.247,0.291-0.402,0.575-0.377,0.991c0.027,0.451-0.035,0.919-0.133,1.364  c-0.169,0.771-0.396,1.529-0.598,2.293C56.44,84.187,58.186,80.991,57.728,76.788z M61.319,10.413  c3.941,0.059,6.308,2.253,8.085,5.476c0-0.196,0.015-0.281-0.002-0.358c-0.358-1.582-0.925-3.075-1.976-4.337  c-0.895-1.074-1.99-1.867-3.405-2.062c-0.459-0.064-1.003-0.019-1.411,0.178C62.153,9.531,61.806,9.981,61.319,10.413z   M30.432,15.747c0.919-1.463,1.933-2.801,3.317-3.823c1.399-1.032,2.989-1.499,4.824-1.493c-0.349-0.332-0.633-0.55-0.852-0.821  c-0.451-0.559-1.054-0.674-1.67-0.501c-0.737,0.207-1.498,0.441-2.143,0.837c-1.631,1.001-2.483,2.605-3.079,4.36  C30.669,14.778,30.563,15.267,30.432,15.747z M35.895,8.293c-0.465-0.243-0.783-0.391-1.082-0.57  c-0.609-0.365-1.232-0.355-1.8,0.022c-0.641,0.425-1.303,0.86-1.827,1.413c-1.092,1.151-1.667,2.602-2.071,4.115  c-0.168,0.632-0.263,1.283-0.392,1.926c0.055,0.017,0.109,0.035,0.164,0.052c0.676-1.57,1.395-3.115,2.508-4.428  C32.541,9.47,33.952,8.566,35.895,8.293z M64.157,8.3c2.4,0.338,4.001,1.776,5.204,3.713c0.546,0.879,0.959,1.839,1.431,2.763  c0.081,0.158,0.154,0.32,0.231,0.48c0.068-0.023,0.136-0.047,0.204-0.07c-0.253-0.981-0.44-1.986-0.772-2.939  c-0.589-1.688-1.432-3.242-3.016-4.215C66.106,7.213,65.764,7.229,64.157,8.3z M72.89,15.211c0.083-0.208,0.112-0.25,0.116-0.294  c0.175-2.092-0.164-4.096-1.247-5.902c-0.414-0.69-1.02-1.305-1.65-1.816c-0.72-0.584-2.059-0.591-2.695-0.187  C70.742,8.659,72.076,11.671,72.89,15.211z M26.98,15.08c0.829-3.406,2.177-6.436,5.593-8.109c-1.245-0.348-2.348-0.275-3.32,0.591  c-0.816,0.726-1.293,1.661-1.687,2.65C26.944,11.777,26.749,13.396,26.98,15.08z M45.126,26.404  c-1.889-1.856-6.399-1.41-7.176,0.627C40.239,25.922,42.572,25.618,45.126,26.404z M61.903,27.045  c-1.026-2.19-5.659-2.423-7.193-0.643C57.168,25.629,59.525,25.883,61.903,27.045z M74.799,15.195  c0.801-2.873-0.74-7.315-2.62-7.756C73.983,10.487,73.983,10.487,74.799,15.195z M27.707,7.473c-1.989,0.72-3.387,5.011-2.532,7.774  C25.331,12.373,26.05,9.804,27.707,7.473z M61.261,29.11c-0.392-0.846-0.945-1.283-1.676-1.486c-1.159-0.322-2.31-0.214-3.443,0.136  c-0.331,0.102-0.64,0.275-0.959,0.415C57.287,27.762,59.272,27.936,61.261,29.11z M44.612,28.204  c-1.527-0.766-3.116-1.041-4.77-0.438c-0.632,0.23-1.051,0.76-1.116,1.249C40.575,27.916,42.546,27.768,44.612,28.204z   M52.337,27.705c-0.068-0.032-0.136-0.065-0.204-0.097c-1.016,1.438-1.935,2.914-1.883,4.777c0.047,0.019,0.094,0.038,0.14,0.057  C51.039,30.863,51.688,29.284,52.337,27.705z M22.176,12.516c-0.718,2.121-0.587,4.198,0.329,6.235  C21.982,16.693,21.896,14.614,22.176,12.516z M77.887,12.73c0,0.958,0.059,1.964-0.017,2.96c-0.075,0.991-0.286,1.972-0.438,2.957  C78.328,16.717,78.454,14.733,77.887,12.73z M24.167,9.683c-0.982,1.947-1.077,3.982-0.6,6.073  C23.499,13.706,23.605,11.672,24.167,9.683z M75.815,9.728c0.157,0.941,0.388,1.921,0.469,2.913  c0.083,1.013,0.018,2.038,0.018,3.162C76.925,14.063,76.653,11.082,75.815,9.728z M63.149,44.718  c-0.085-0.468-0.273-0.71-0.588-0.633c-0.214,0.052-0.373,0.327-0.557,0.503c0.178,0.177,0.34,0.468,0.54,0.499  C62.724,45.113,62.946,44.852,63.149,44.718z M37.187,45.19c0.079,0.003,0.158,0.006,0.237,0.009  c0.141-0.204,0.386-0.405,0.391-0.612c0.004-0.171-0.246-0.445-0.435-0.502c-0.318-0.095-0.567,0.147-0.54,0.462  C36.858,44.77,37.064,44.976,37.187,45.19z M79.592,16.436c-0.049-0.01-0.097-0.021-0.146-0.031  c-0.185,1.019-0.371,2.038-0.556,3.057c0.056,0.01,0.113,0.02,0.169,0.029C79.237,18.473,79.415,17.455,79.592,16.436z   M20.538,16.659c-0.05,0.009-0.101,0.018-0.151,0.028c0.161,0.901,0.321,1.801,0.482,2.702c0.05-0.009,0.1-0.018,0.15-0.027  C20.858,18.46,20.698,17.559,20.538,16.659z"/><path d="M44.1,49.694c-0.703,1.463-1.413,2.821-2.015,4.225c-0.597,1.394-1.086,2.835-1.638,4.298  C39.652,55.014,41.298,51.151,44.1,49.694z"/><path d="M59.458,58.076c-1.177-2.738-2.387-5.552-3.572-8.309C58.467,51.083,60.283,55.332,59.458,58.076z"/><text x="0" y="115" fill="#000000" font-size="5px" font-weight="bold" font-family="'Helvetica Neue', Helvetica, Arial-Unicode, Arial, Sans-serif">Created by Maxim Kulikov</text><text x="0" y="120" fill="#000000" font-size="5px" font-weight="bold" font-family="'Helvetica Neue', Helvetica, Arial-Unicode, Arial, Sans-serif">from the Noun Project</text></svg>